
<svg
  version="1.0"
  xmlns="http://www.w3.org/2000/svg"
  xmlns:xlink="http://www.w3.org/1999/xlink"
  width="2400"
  height="1800"
>
  
  <rect
    x="0"
    y="0"
    width="100%"
    height="100%"
    fill="#fff"
    fill-opacity="1"
  ></rect>
  <svg
    version="1.0"
    xmlns="http://www.w3.org/2000/svg"
    xmlns:xlink="http://www.w3.org/1999/xlink"
    x="0"
    y="0"
    width="2400"
    height="1800"
    viewBox="0 0 340.000000 250.000000"
    preserveAspectRatio="xMidYMid meet"
    color-interpolation-filters="sRGB"
  >
    <defs><linearGradient id="92" x1="0%" y1="0%" x2="100%" y2="0%"><stop offset="0%" stop-color="#fa71cd"/> <stop offset="100%" stop-color="#9b59b6"/></linearGradient><linearGradient id="93" x1="0%" y1="0%" x2="100%" y2="0%"><stop offset="0%" stop-color="#f9d423"/> <stop offset="100%" stop-color="#f83600"/></linearGradient><linearGradient id="94" x1="0%" y1="0%" x2="100%" y2="0%"><stop offset="0%" stop-color="#0064d2"/> <stop offset="100%" stop-color="#1cb0f6"/></linearGradient><linearGradient id="95" x1="0%" y1="0%" x2="100%" y2="0%"><stop offset="0%" stop-color="#f00978"/> <stop offset="100%" stop-color="#3f51b1"/></linearGradient><linearGradient id="96" x1="0%" y1="0%" x2="100%" y2="0%"><stop offset="0%" stop-color="#7873f5"/> <stop offset="100%" stop-color="#ec77ab"/></linearGradient><linearGradient id="97" x1="0%" y1="0%" x2="100%" y2="0%"><stop offset="0%" stop-color="#f9d423"/> <stop offset="100%" stop-color="#e14fad"/></linearGradient><linearGradient id="98" x1="0%" y1="0%" x2="100%" y2="0%"><stop offset="0%" stop-color="#009efd"/> <stop offset="100%" stop-color="#2af598"/></linearGradient><linearGradient id="99" x1="0%" y1="0%" x2="100%" y2="0%"><stop offset="0%" stop-color="#ffcc00"/> <stop offset="100%" stop-color="#00b140"/></linearGradient><linearGradient id="100" x1="0%" y1="0%" x2="100%" y2="0%"><stop offset="0%" stop-color="#d51007"/> <stop offset="100%" stop-color="#ff8177"/></linearGradient><linearGradient id="102" x1="0%" y1="0%" x2="100%" y2="0%"><stop offset="0%" stop-color="#a2b6df"/> <stop offset="100%" stop-color="#0c3483"/></linearGradient><linearGradient id="103" x1="0%" y1="0%" x2="100%" y2="0%"><stop offset="0%" stop-color="#7ac5d8"/> <stop offset="100%" stop-color="#eea2a2"/></linearGradient><linearGradient id="104" x1="0%" y1="0%" x2="100%" y2="0%"><stop offset="0%" stop-color="#00ecbc"/> <stop offset="100%" stop-color="#007adf"/></linearGradient><linearGradient id="105" x1="0%" y1="0%" x2="100%" y2="0%"><stop offset="0%" stop-color="#b88746"/> <stop offset="100%" stop-color="#fdf5a6"/></linearGradient></defs> <g fill="#333" class="icon-text-wrapper icon-svg-group iconsvg" transform="translate(81.79499816894531,68.68070983886719)"><g class="iconsvg-imagesvg" transform="translate(58.20500183105469,0)"><g><rect fill="#333" fill-opacity="0" stroke-width="2" x="0" y="0" width="60" height="53.93258426966292" class="image-rect"/> <svg x="0" y="0" width="60" height="53.93258426966292" filtersec="colorsb6007030703" class="image-svg-svg primary" style="overflow: visible;"><svg xmlns="http://www.w3.org/2000/svg" viewBox="0 0 111.25 100"><path d="M111.25 100H18L0 89.17h93.36zM.09 89.09v.08z" fill="#0d5da3"/><path fill="#2072b9" d="M93.36 89.17l-23.33-44.6L46.72 0l17.89 10.83 46.64 89.16-17.89-10.82z"/><path fill="#079dd9" d="M1.07 85.66v.01h86.02l-5.67-10.83H18.96L1.07 85.66z"/><path fill="#01aaee" d="M18.96 74.84l23.34-44.6 7.9-15.11-6.12-11.68L1.07 85.66l17.89-10.82z"/><path fill="#012f64" d="M25.47 70.89l53.87-.04-26.92-51.44-26.95 51.48z"/></svg></svg> </g></g> <g transform="translate(0,60.93258285522461)"><g fill-rule="" class="tp-name iconsvg-namesvg" transform="translate(0,0)"><g transform="scale(1)"><g><path d="M9.25-29.41L9.25-5.45 20.15-5.45 20.15 0 2.42 0 2.42-29.41 9.25-29.41ZM31.9-21.26L31.9-21.26Q34.28-21.26 36.24-20.51 38.2-19.76 39.6-18.37 41-16.98 41.78-14.99 42.56-13 42.56-10.52L42.56-10.52Q42.56-8.01 41.78-6.01 41-4 39.6-2.59 38.2-1.19 36.24-0.43 34.28 0.32 31.9 0.32L31.9 0.32Q29.5 0.32 27.53-0.43 25.56-1.19 24.14-2.59 22.71-4 21.93-6.01 21.16-8.01 21.16-10.52L21.16-10.52Q21.16-13 21.93-14.99 22.71-16.98 24.14-18.37 25.56-19.76 27.53-20.51 29.5-21.26 31.9-21.26ZM31.9-4.32L31.9-4.32Q34.06-4.32 35.08-5.84 36.1-7.37 36.1-10.48L36.1-10.48Q36.1-13.59 35.08-15.1 34.06-16.62 31.9-16.62L31.9-16.62Q29.68-16.62 28.65-15.1 27.62-13.59 27.62-10.48L27.62-10.48Q27.62-7.37 28.65-5.84 29.68-4.32 31.9-4.32ZM53.38-21.3L53.38-21.3Q54.71-21.3 55.89-21.04 57.07-20.77 58.08-20.29L58.08-20.29 64.4-20.29 64.4-18.01Q64.4-17.48 64.11-17.18 63.82-16.88 63.11-16.72L63.11-16.72 61.57-16.37Q61.86-15.46 61.86-14.5L61.86-14.5Q61.86-12.92 61.2-11.67 60.55-10.42 59.4-9.54 58.26-8.66 56.71-8.19 55.15-7.71 53.38-7.71L53.38-7.71Q52.39-7.71 51.52-7.83L51.52-7.83Q50.83-7.43 50.83-6.9L50.83-6.9Q50.83-6.38 51.39-6.15 51.94-5.92 52.85-5.82 53.76-5.73 54.93-5.7 56.1-5.67 57.31-5.56 58.53-5.45 59.7-5.19 60.87-4.93 61.78-4.34 62.69-3.76 63.24-2.78 63.8-1.8 63.8-0.28L63.8-0.28Q63.8 1.13 63.11 2.48 62.42 3.84 61.09 4.89 59.76 5.94 57.82 6.57 55.88 7.21 53.38 7.21L53.38 7.21Q50.92 7.21 49.13 6.74 47.34 6.28 46.16 5.52 44.98 4.76 44.41 3.78 43.85 2.79 43.85 1.72L43.85 1.72Q43.85 0.32 44.7-0.64 45.55-1.59 47.02-2.14L47.02-2.14Q46.31-2.6 45.89-3.33 45.46-4.06 45.46-5.17L45.46-5.17Q45.46-5.63 45.63-6.15 45.79-6.66 46.13-7.15 46.47-7.63 47-8.08 47.52-8.52 48.25-8.86L48.25-8.86Q46.62-9.73 45.68-11.16 44.74-12.6 44.74-14.5L44.74-14.5Q44.74-16.07 45.4-17.33 46.07-18.59 47.23-19.47 48.39-20.35 49.97-20.82 51.54-21.3 53.38-21.3ZM58.02 0.77L58.02 0.77Q58.02 0.26 57.71-0.04 57.4-0.34 56.86-0.52 56.33-0.71 55.61-0.79 54.89-0.87 54.06-0.91 53.24-0.95 52.35-0.98 51.46-1.01 50.59-1.11L50.59-1.11Q50.01-0.71 49.63-0.21 49.26 0.28 49.26 0.91L49.26 0.91Q49.26 1.35 49.45 1.72 49.64 2.08 50.13 2.34 50.61 2.6 51.43 2.76 52.25 2.91 53.5 2.91L53.5 2.91Q54.85 2.91 55.72 2.75 56.59 2.58 57.1 2.3 57.62 2.02 57.82 1.63 58.02 1.23 58.02 0.77ZM53.38-11.57L53.38-11.57Q54.93-11.57 55.63-12.35 56.33-13.12 56.33-14.35L56.33-14.35Q56.33-15.63 55.63-16.35 54.93-17.08 53.38-17.08L53.38-17.08Q51.82-17.08 51.13-16.35 50.43-15.63 50.43-14.35L50.43-14.35Q50.43-13.75 50.6-13.24 50.77-12.74 51.14-12.37 51.5-11.99 52.06-11.78 52.61-11.57 53.38-11.57ZM85.2-26.61L83.5-23.44Q83.2-22.95 82.86-22.71 82.53-22.47 82.01-22.47L82.01-22.47Q81.54-22.47 81.01-22.76 80.47-23.06 79.79-23.42 79.12-23.78 78.25-24.07 77.38-24.37 76.27-24.37L76.27-24.37Q74.35-24.37 73.42-23.55 72.48-22.73 72.48-21.34L72.48-21.34Q72.48-20.45 73.04-19.87 73.61-19.28 74.53-18.86 75.44-18.43 76.63-18.08 77.81-17.73 79.04-17.29 80.27-16.86 81.45-16.27 82.63-15.69 83.55-14.78 84.47-13.87 85.03-12.57 85.6-11.27 85.6-9.43L85.6-9.43Q85.6-7.39 84.89-5.61 84.19-3.84 82.84-2.51 81.5-1.19 79.53-0.43 77.56 0.32 75.06 0.32L75.06 0.32Q73.69 0.32 72.26 0.04 70.84-0.24 69.51-0.76 68.18-1.27 67.01-1.98 65.83-2.69 64.97-3.55L64.97-3.55 66.99-6.74Q67.21-7.11 67.61-7.33 68.01-7.55 68.48-7.55L68.48-7.55Q69.08-7.55 69.7-7.17 70.32-6.78 71.09-6.32 71.87-5.85 72.88-5.47 73.89-5.09 75.26-5.09L75.26-5.09Q77.12-5.09 78.15-5.91 79.18-6.72 79.18-8.5L79.18-8.5Q79.18-9.53 78.61-10.17 78.05-10.82 77.13-11.24 76.21-11.67 75.04-11.99 73.87-12.31 72.64-12.71 71.41-13.1 70.24-13.68 69.06-14.25 68.15-15.19 67.23-16.13 66.66-17.53 66.1-18.94 66.1-21L66.1-21Q66.1-22.65 66.76-24.23 67.43-25.8 68.72-27.03 70.01-28.26 71.89-29 73.77-29.74 76.19-29.74L76.19-29.74Q77.54-29.74 78.83-29.53 80.11-29.31 81.26-28.9 82.41-28.49 83.41-27.91 84.41-27.34 85.2-26.61L85.2-26.61ZM118.02-14.72L118.02-14.72Q118.02-12.82 117.63-11.07 117.23-9.33 116.5-7.79 115.76-6.26 114.68-4.95 113.6-3.63 112.23-2.62L112.23-2.62 119.68 5.51 114.06 5.51Q112.85 5.51 111.86 5.22 110.87 4.93 110.11 4.04L110.11 4.04 106.45-0.06Q105.57 0.12 104.65 0.22 103.73 0.32 102.76 0.32L102.76 0.32Q99.33 0.32 96.5-0.83 93.67-1.98 91.67-4.01 89.66-6.04 88.56-8.78 87.46-11.53 87.46-14.72L87.46-14.72Q87.46-17.91 88.56-20.65 89.66-23.4 91.67-25.42 93.67-27.44 96.5-28.59 99.33-29.74 102.76-29.74L102.76-29.74Q106.19-29.74 109.01-28.58 111.82-27.42 113.82-25.4 115.82-23.38 116.92-20.63 118.02-17.89 118.02-14.72ZM111.04-14.72L111.04-14.72Q111.04-16.9 110.47-18.64 109.91-20.39 108.85-21.6 107.79-22.81 106.25-23.46 104.72-24.1 102.76-24.1L102.76-24.1Q100.78-24.1 99.24-23.46 97.69-22.81 96.63-21.6 95.57-20.39 95.01-18.64 94.44-16.9 94.44-14.72L94.44-14.72Q94.44-12.52 95.01-10.77 95.57-9.02 96.63-7.81 97.69-6.6 99.24-5.97 100.78-5.33 102.76-5.33L102.76-5.33Q104.72-5.33 106.25-5.97 107.79-6.6 108.85-7.81 109.91-9.02 110.47-10.77 111.04-12.52 111.04-14.72ZM121.49-30.22L127.75-30.22 127.75 0 121.49 0 121.49-30.22ZM133-20.94L139.26-20.94 139.26 0 133 0 133-20.94ZM139.99-26.67L139.99-26.67Q139.99-25.92 139.68-25.27 139.38-24.61 138.86-24.12 138.33-23.62 137.63-23.33 136.94-23.03 136.15-23.03L136.15-23.03Q135.38-23.03 134.72-23.33 134.05-23.62 133.54-24.12 133.02-24.61 132.73-25.27 132.44-25.92 132.44-26.67L132.44-26.67Q132.44-27.44 132.73-28.1 133.02-28.77 133.54-29.27 134.05-29.78 134.72-30.06 135.38-30.34 136.15-30.34L136.15-30.34Q136.94-30.34 137.63-30.06 138.33-29.78 138.86-29.27 139.38-28.77 139.68-28.1 139.99-27.44 139.99-26.67ZM151.66 0.32L151.66 0.32Q150.16 0.32 149.02-0.11 147.88-0.55 147.1-1.34 146.33-2.14 145.92-3.27 145.52-4.4 145.52-5.79L145.52-5.79 145.52-16.62 143.74-16.62Q143.26-16.62 142.91-16.93 142.57-17.24 142.57-17.85L142.57-17.85 142.57-20.29 145.9-20.94 147.13-26.04Q147.38-27.01 148.51-27.01L148.51-27.01 151.78-27.01 151.78-20.9 156.86-20.9 156.86-16.62 151.78-16.62 151.78-6.22Q151.78-5.49 152.13-5.02 152.48-4.54 153.15-4.54L153.15-4.54Q153.49-4.54 153.72-4.61 153.96-4.68 154.13-4.77 154.3-4.87 154.45-4.94 154.6-5.01 154.8-5.01L154.8-5.01Q155.09-5.01 155.26-4.88 155.43-4.74 155.61-4.46L155.61-4.46 157.51-1.49Q156.3-0.59 154.78-0.13 153.27 0.32 151.66 0.32ZM169.42-21.26L169.42-21.26Q171.5-21.26 173.23-20.61 174.95-19.97 176.19-18.73 177.44-17.5 178.13-15.72 178.83-13.93 178.83-11.67L178.83-11.67Q178.83-10.96 178.77-10.52 178.71-10.07 178.55-9.81 178.38-9.55 178.11-9.45 177.84-9.35 177.42-9.35L177.42-9.35 165.34-9.35Q165.65-6.72 166.94-5.54 168.23-4.36 170.27-4.36L170.27-4.36Q171.36-4.36 172.15-4.62 172.93-4.89 173.55-5.21 174.17-5.53 174.68-5.79 175.2-6.06 175.76-6.06L175.76-6.06Q176.51-6.06 176.89-5.51L176.89-5.51 178.71-3.27Q177.74-2.16 176.62-1.46 175.5-0.77 174.32-0.37 173.14 0.02 171.95 0.17 170.77 0.32 169.7 0.32L169.7 0.32Q167.5 0.32 165.58-0.39 163.65-1.11 162.2-2.52 160.76-3.94 159.92-6.04 159.08-8.14 159.08-10.92L159.08-10.92Q159.08-13.02 159.8-14.9 160.52-16.78 161.86-18.19 163.2-19.6 165.11-20.43 167.02-21.26 169.42-21.26ZM169.54-16.94L169.54-16.94Q167.75-16.94 166.74-15.92 165.73-14.9 165.4-12.98L165.4-12.98 173.22-12.98Q173.22-13.73 173.02-14.43 172.83-15.14 172.4-15.7 171.97-16.25 171.26-16.59 170.55-16.94 169.54-16.94Z" transform="translate(-2.4200000762939453, 30.34000015258789)"/></g> </g></g> <g fill-rule="" class="tp-slogan iconsvg-slogansvg" fill="#333" transform="translate(25.830001831054688,43.54999923706055)"> <g transform="scale(1, 1)"><g transform="scale(1)"><path d="M1.08-7.87L1.08 0L5.52 0L5.52-0.85L2.08-0.85L2.08-7.87ZM9.50 0.14C10.00 0.14 10.45 0.05 10.87-0.14C11.28-0.34 11.63-0.61 11.93-0.97C12.23-1.32 12.47-1.75 12.63-2.26C12.79-2.77 12.88-3.34 12.88-3.97C12.88-4.60 12.79-5.16 12.63-5.66C12.47-6.16 12.23-6.58 11.93-6.93C11.63-7.28 11.28-7.55 10.87-7.73C10.45-7.92 10.00-8.02 9.50-8.02C9.01-8.02 8.55-7.92 8.14-7.74C7.73-7.56 7.38-7.29 7.08-6.94C6.78-6.59 6.55-6.17 6.39-5.67C6.23-5.17 6.14-4.60 6.14-3.97C6.14-3.34 6.23-2.77 6.39-2.26C6.55-1.75 6.78-1.32 7.08-0.97C7.38-0.61 7.73-0.34 8.14-0.14C8.55 0.05 9.01 0.14 9.50 0.14ZM9.50-0.73C9.15-0.73 8.83-0.81 8.55-0.96C8.27-1.11 8.02-1.33 7.82-1.61C7.61-1.90 7.46-2.24 7.34-2.63C7.23-3.03 7.18-3.48 7.18-3.97C7.18-4.46 7.23-4.90 7.34-5.29C7.46-5.68 7.61-6.02 7.82-6.29C8.02-6.56 8.27-6.77 8.55-6.92C8.83-7.07 9.15-7.14 9.50-7.14C9.86-7.14 10.17-7.07 10.46-6.92C10.74-6.77 10.99-6.56 11.19-6.29C11.39-6.02 11.55-5.68 11.66-5.29C11.78-4.90 11.83-4.46 11.83-3.97C11.83-3.48 11.78-3.03 11.66-2.63C11.55-2.24 11.39-1.90 11.19-1.61C10.99-1.33 10.74-1.11 10.46-0.96C10.17-0.81 9.86-0.73 9.50-0.73ZM14.11-3.94C14.11-3.30 14.20-2.72 14.38-2.21C14.55-1.71 14.80-1.28 15.11-0.93C15.42-0.58 15.79-0.32 16.22-0.13C16.66 0.05 17.13 0.14 17.65 0.14C18.18 0.14 18.65 0.06 19.07-0.11C19.49-0.29 19.83-0.50 20.09-0.77L20.09-4.08L17.51-4.08L17.51-3.25L19.18-3.25L19.18-1.20C19.02-1.06 18.81-0.94 18.56-0.86C18.31-0.77 18.04-0.73 17.76-0.73C17.34-0.73 16.96-0.81 16.64-0.96C16.31-1.11 16.04-1.33 15.82-1.61C15.60-1.89 15.43-2.23 15.32-2.62C15.20-3.02 15.14-3.46 15.14-3.96C15.14-4.45 15.21-4.89 15.33-5.28C15.45-5.67 15.63-6.01 15.85-6.28C16.08-6.56 16.35-6.77 16.67-6.92C16.99-7.07 17.35-7.14 17.75-7.14C18.15-7.14 18.48-7.07 18.74-6.93C19.00-6.79 19.23-6.62 19.43-6.41L19.99-7.04C19.76-7.28 19.46-7.51 19.10-7.71C18.73-7.91 18.28-8.02 17.74-8.02C17.21-8.02 16.72-7.92 16.28-7.73C15.84-7.55 15.46-7.28 15.14-6.92C14.81-6.57 14.56-6.14 14.38-5.64C14.20-5.14 14.11-4.57 14.11-3.94ZM21.52-3.94C21.52-3.30 21.60-2.72 21.78-2.21C21.96-1.71 22.20-1.28 22.51-0.93C22.82-0.58 23.20-0.32 23.63-0.13C24.06 0.05 24.54 0.14 25.06 0.14C25.58 0.14 26.06 0.06 26.48-0.11C26.90-0.29 27.24-0.50 27.49-0.77L27.49-4.08L24.91-4.08L24.91-3.25L26.58-3.25L26.58-1.20C26.42-1.06 26.21-0.94 25.96-0.86C25.71-0.77 25.44-0.73 25.16-0.73C24.74-0.73 24.37-0.81 24.04-0.96C23.72-1.11 23.45-1.33 23.23-1.61C23.01-1.89 22.84-2.23 22.72-2.62C22.61-3.02 22.55-3.46 22.55-3.96C22.55-4.45 22.61-4.89 22.73-5.28C22.86-5.67 23.03-6.01 23.26-6.28C23.48-6.56 23.75-6.77 24.07-6.92C24.39-7.07 24.75-7.14 25.15-7.14C25.55-7.14 25.88-7.07 26.14-6.93C26.40-6.79 26.63-6.62 26.83-6.41L27.40-7.04C27.16-7.28 26.87-7.51 26.50-7.71C26.14-7.91 25.68-8.02 25.14-8.02C24.61-8.02 24.13-7.92 23.69-7.73C23.25-7.55 22.87-7.28 22.54-6.92C22.22-6.57 21.97-6.14 21.79-5.64C21.61-5.14 21.52-4.57 21.52-3.94ZM29.38-7.87L29.38 0L30.37 0L30.37-7.87ZM32.53-7.87L32.53 0L33.48 0L33.48-4.12C33.48-4.53 33.47-4.95 33.44-5.36C33.41-5.77 33.38-6.18 33.35-6.58L33.40-6.58L34.25-4.96L37.10 0L38.14 0L38.14-7.87L37.19-7.87L37.19-3.80C37.19-3.39 37.20-2.97 37.23-2.54C37.26-2.11 37.28-1.70 37.31-1.30L37.26-1.30L36.41-2.93L33.56-7.87ZM39.84-3.94C39.84-3.30 39.93-2.72 40.10-2.21C40.28-1.71 40.52-1.28 40.84-0.93C41.15-0.58 41.52-0.32 41.95-0.13C42.38 0.05 42.86 0.14 43.38 0.14C43.91 0.14 44.38 0.06 44.80-0.11C45.22-0.29 45.56-0.50 45.82-0.77L45.82-4.08L43.24-4.08L43.24-3.25L44.90-3.25L44.90-1.20C44.74-1.06 44.54-0.94 44.29-0.86C44.03-0.77 43.77-0.73 43.49-0.73C43.06-0.73 42.69-0.81 42.37-0.96C42.04-1.11 41.77-1.33 41.55-1.61C41.33-1.89 41.16-2.23 41.05-2.62C40.93-3.02 40.87-3.46 40.87-3.96C40.87-4.45 40.93-4.89 41.06-5.28C41.18-5.67 41.36-6.01 41.58-6.28C41.80-6.56 42.08-6.77 42.40-6.92C42.72-7.07 43.08-7.14 43.48-7.14C43.88-7.14 44.21-7.07 44.47-6.93C44.73-6.79 44.96-6.62 45.16-6.41L45.72-7.04C45.49-7.28 45.19-7.51 44.83-7.71C44.46-7.91 44.01-8.02 43.46-8.02C42.94-8.02 42.45-7.92 42.01-7.73C41.57-7.55 41.19-7.28 40.87-6.92C40.54-6.57 40.29-6.14 40.11-5.64C39.93-5.14 39.84-4.57 39.84-3.94ZM50.12-7.87L50.12 0L52.14 0C52.73 0 53.26-0.09 53.71-0.27C54.17-0.45 54.55-0.71 54.86-1.05C55.18-1.39 55.41-1.81 55.57-2.30C55.73-2.79 55.81-3.35 55.81-3.97C55.81-5.23 55.50-6.19 54.86-6.86C54.23-7.54 53.31-7.87 52.09-7.87ZM52.02-0.82L51.12-0.82L51.12-7.06L52.02-7.06C52.94-7.06 53.63-6.79 54.09-6.26C54.55-5.74 54.78-4.97 54.78-3.97C54.78-2.97 54.55-2.20 54.09-1.64C53.63-1.09 52.94-0.82 52.02-0.82ZM58.50-4.14L58.50-7.07L59.82-7.07C60.44-7.07 60.91-6.96 61.24-6.76C61.56-6.55 61.73-6.18 61.73-5.66C61.73-5.15 61.56-4.77 61.24-4.52C60.91-4.27 60.44-4.14 59.82-4.14ZM61.82 0L62.95 0L60.96-3.43C61.50-3.57 61.92-3.82 62.24-4.19C62.56-4.56 62.72-5.05 62.72-5.66C62.72-6.07 62.66-6.42 62.52-6.70C62.38-6.98 62.19-7.20 61.95-7.38C61.71-7.56 61.41-7.68 61.07-7.76C60.73-7.83 60.36-7.87 59.96-7.87L57.50-7.87L57.50 0L58.50 0L58.50-3.32L59.93-3.32ZM64.48-7.87L64.48 0L65.47 0L65.47-7.87ZM66.55-7.87L69.07 0L70.24 0L72.73-7.87L71.71-7.87L70.45-3.62C70.32-3.15 70.19-2.72 70.08-2.32C69.97-1.92 69.84-1.48 69.70-1.02L69.65-1.02C69.50-1.48 69.37-1.92 69.26-2.32C69.15-2.72 69.02-3.15 68.88-3.62L67.62-7.87ZM73.81-7.87L73.81 0L78.47 0L78.47-0.85L74.81-0.85L74.81-3.71L77.80-3.71L77.80-4.56L74.81-4.56L74.81-7.03L78.35-7.03L78.35-7.87ZM81.13-4.14L81.13-7.07L82.45-7.07C83.07-7.07 83.54-6.96 83.87-6.76C84.20-6.55 84.36-6.18 84.36-5.66C84.36-5.15 84.20-4.77 83.87-4.52C83.54-4.27 83.07-4.14 82.45-4.14ZM84.46 0L85.58 0L83.59-3.43C84.13-3.57 84.56-3.82 84.88-4.19C85.20-4.56 85.36-5.05 85.36-5.66C85.36-6.07 85.29-6.42 85.15-6.70C85.02-6.98 84.83-7.20 84.58-7.38C84.34-7.56 84.05-7.68 83.71-7.76C83.37-7.83 83.00-7.87 82.60-7.87L80.14-7.87L80.14 0L81.13 0L81.13-3.32L82.56-3.32ZM89.53-7.87L89.53 0L90.53 0L90.53-3.12L91.94-3.12C92.38-3.12 92.77-3.17 93.13-3.27C93.48-3.37 93.79-3.52 94.04-3.72C94.30-3.92 94.50-4.17 94.64-4.48C94.78-4.78 94.85-5.14 94.85-5.56C94.85-5.99 94.78-6.35 94.64-6.65C94.50-6.94 94.30-7.18 94.05-7.36C93.80-7.54 93.49-7.67 93.13-7.75C92.77-7.83 92.38-7.87 91.94-7.87ZM91.82-3.94L90.53-3.94L90.53-7.07L91.82-7.07C92.50-7.07 93.01-6.96 93.35-6.74C93.68-6.52 93.85-6.12 93.85-5.56C93.85-5.00 93.69-4.59 93.35-4.33C93.02-4.07 92.51-3.94 91.82-3.94ZM96.44-7.87L96.44 0L100.88 0L100.88-0.85L97.44-0.85L97.44-7.87ZM101.89-7.87L101.89-3.25C101.89-2.62 101.96-2.09 102.11-1.66C102.25-1.22 102.45-0.87 102.70-0.61C102.95-0.34 103.25-0.15 103.60-0.03C103.95 0.09 104.32 0.14 104.72 0.14C105.12 0.14 105.50 0.09 105.84-0.03C106.18-0.15 106.48-0.34 106.73-0.61C106.99-0.87 107.18-1.22 107.33-1.66C107.47-2.09 107.54-2.62 107.54-3.25L107.54-7.87L106.58-7.87L106.58-3.23C106.58-2.76 106.54-2.36 106.44-2.04C106.34-1.72 106.21-1.46 106.04-1.27C105.88-1.08 105.68-0.94 105.46-0.86C105.23-0.77 104.99-0.73 104.72-0.73C104.47-0.73 104.23-0.77 104.00-0.86C103.78-0.94 103.59-1.08 103.42-1.27C103.26-1.46 103.13-1.72 103.03-2.04C102.94-2.36 102.89-2.76 102.89-3.23L102.89-7.87ZM109.21-3.94C109.21-3.30 109.30-2.72 109.48-2.21C109.65-1.71 109.90-1.28 110.21-0.93C110.52-0.58 110.89-0.32 111.32-0.13C111.76 0.05 112.23 0.14 112.75 0.14C113.28 0.14 113.75 0.06 114.17-0.11C114.59-0.29 114.93-0.50 115.19-0.77L115.19-4.08L112.61-4.08L112.61-3.25L114.28-3.25L114.28-1.20C114.12-1.06 113.91-0.94 113.66-0.86C113.41-0.77 113.14-0.73 112.86-0.73C112.44-0.73 112.06-0.81 111.74-0.96C111.41-1.11 111.14-1.33 110.92-1.61C110.70-1.89 110.53-2.23 110.42-2.62C110.30-3.02 110.24-3.46 110.24-3.96C110.24-4.45 110.31-4.89 110.43-5.28C110.55-5.67 110.73-6.01 110.95-6.28C111.18-6.56 111.45-6.77 111.77-6.92C112.09-7.07 112.45-7.14 112.85-7.14C113.25-7.14 113.58-7.07 113.84-6.93C114.10-6.79 114.33-6.62 114.53-6.41L115.09-7.04C114.86-7.28 114.56-7.51 114.20-7.71C113.83-7.91 113.38-8.02 112.84-8.02C112.31-8.02 111.82-7.92 111.38-7.73C110.94-7.55 110.56-7.28 110.24-6.92C109.91-6.57 109.66-6.14 109.48-5.64C109.30-5.14 109.21-4.57 109.21-3.94ZM117.07-7.87L117.07 0L118.07 0L118.07-7.87ZM120.23-7.87L120.23 0L121.18 0L121.18-4.12C121.18-4.53 121.16-4.95 121.13-5.36C121.11-5.77 121.08-6.18 121.04-6.58L121.09-6.58L121.94-4.96L124.80 0L125.83 0L125.83-7.87L124.88-7.87L124.88-3.80C124.88-3.39 124.90-2.97 124.93-2.54C124.95-2.11 124.98-1.70 125.00-1.30L124.96-1.30L124.10-2.93L121.26-7.87Z" transform="translate(-1.08, 8.016)"/></g></g></g></g></g><defs v-gra="od"/>
  </svg>
</svg>


